<svg viewBox="0 0 200 200" xmlns="http://www.w3.org/2000/svg">
  <!-- Background -->
  <rect width="200" height="200" fill="#FFF8E7" rx="10"/>
  
  <!-- Pot -->
  <ellipse cx="100" cy="100" rx="45" ry="50" fill="#8B6F47"/>
  <path d="M 60 100 Q 55 80 65 70 Q 75 65 100 65 Q 125 65 135 70 Q 145 80 140 100" fill="#A0826D" stroke="#6B4423" stroke-width="2"/>
  
  <!-- Pot decorations -->
  <circle cx="85" cy="95" r="3" fill="#D4A574" opacity="0.6"/>
  <circle cx="100" cy="100" r="3" fill="#D4A574" opacity="0.6"/>
  <circle cx="115" cy="95" r="3" fill="#D4A574" opacity="0.6"/>
  
  <!-- Handle -->
  <path d="M 140 85 Q 160 90 160 115 Q 160 120 155 122 Q 150 125 140 120" stroke="#6B4423" stroke-width="6" fill="none" stroke-linecap="round"/>
  
  <!-- Spoon -->
  <g transform="translate(110, 60)">
    <rect x="-2" y="-35" width="4" height="35" fill="#8B6F47" rx="2"/>
    <ellipse cx="0" cy="5" rx="8" ry="10" fill="#A0826D" stroke="#6B4423" stroke-width="1"/>
  </g>
  
  <!-- Sparkles around pot -->
  <g fill="#FFD700" opacity="0.8">
    <polygon points="55,40 58,45 63,48 58,50 55,55 52,50 47,48 52,45" />
    <polygon points="145,45 148,50 153,53 148,55 145,60 142,55 137,53 142,50" />
    <polygon points="70,30 72,34 76,36 72,38 70,42 68,38 64,36 68,34" />
  </g>
  
  <!-- Flowers/decorations at bottom -->
  <g fill="#FFD700" opacity="0.7">
    <circle cx="75" cy="160" r="4"/>
    <circle cx="72" cy="156" r="3"/>
    <circle cx="78" cy="156" r="3"/>
    <circle cx="125" cy="160" r="4"/>
    <circle cx="122" cy="156" r="3"/>
    <circle cx="128" cy="156" r="3"/>
    <circle cx="100" cy="165" r="3"/>
    <circle cx="97" cy="161" r="2"/>
    <circle cx="103" cy="161" r="2"/>
  </g>
</svg>